PathFileType	4	(X/Y/Z)	Kaydara	
DataRate	CameraRate	NumFrames	NumMarkers	Units	OrigDataRate	OrigDataStartFrame	OrigNumFrames	
120.00	120.00	4	72	mm	120.00	101	268	
Frame#	Time	Hips			RightUpLeg			RightLeg			RightFoot			RightFoot_End			LeftUpLeg			LeftLeg			LeftFoot			LeftFoot_End			Spine			Spine1			Spine2			Spine3			Neck			Head			Head_End			RightShoulder			RightArm			RightForeArm			RightHand			RightHandThumb1			RightHandThumb2			RightHandThumb3			RightHandThumb3_End			RightInHandIndex			RightHandIndex1			RightHandIndex2			RightHandIndex3			RightHandIndex3_End			RightInHandMiddle			RightHandMiddle1			RightHandMiddle2			RightHandMiddle3			RightHandMiddle3_End			RightInHandRing			RightHandRing1			RightHandRing2			RightHandRing3			RightHandRing3_End			RightInHandPinky			RightHandPinky1			RightHandPinky2			RightHandPinky3			RightHandPinky3_End			LeftShoulder			LeftArm			LeftForeArm			LeftHand			LeftHandThumb1			LeftHandThumb2			LeftHandThumb3			LeftHandThumb3_End			LeftInHandIndex			LeftHandIndex1			LeftHandIndex2			LeftHandIndex3			LeftHandIndex3_End			LeftInHandMiddle			LeftHandMiddle1			LeftHandMiddle2			LeftHandMiddle3			LeftHandMiddle3_End			LeftInHandRing			LeftHandRing1			LeftHandRing2			LeftHandRing3			LeftHandRing3_End			LeftInHandPinky			LeftHandPinky1			LeftHandPinky2			LeftHandPinky3			LeftHandPinky3_End			
		X1	Y1	Z1	X2	Y2	Z2	X3	Y3	Z3	X4	Y4	Z4	X5	Y5	Z5	X6	Y6	Z6	X7	Y7	Z7	X8	Y8	Z8	X9	Y9	Z9	X10	Y10	Z10	X11	Y11	Z11	X12	Y12	Z12	X13	Y13	Z13	X14	Y14	Z14	X15	Y15	Z15	X16	Y16	Z16	X17	Y17	Z17	X18	Y18	Z18	X19	Y19	Z19	X20	Y20	Z20	X21	Y21	Z21	X22	Y22	Z22	X23	Y23	Z23	X24	Y24	Z24	X25	Y25	Z25	X26	Y26	Z26	X27	Y27	Z27	X28	Y28	Z28	X29	Y29	Z29	X30	Y30	Z30	X31	Y31	Z31	X32	Y32	Z32	X33	Y33	Z33	X34	Y34	Z34	X35	Y35	Z35	X36	Y36	Z36	X37	Y37	Z37	X38	Y38	Z38	X39	Y39	Z39	X40	Y40	Z40	X41	Y41	Z41	X42	Y42	Z42	X43	Y43	Z43	X44	Y44	Z44	X45	Y45	Z45	X46	Y46	Z46	X47	Y47	Z47	X48	Y48	Z48	X49	Y49	Z49	X50	Y50	Z50	X51	Y51	Z51	X52	Y52	Z52	X53	Y53	Z53	X54	Y54	Z54	X55	Y55	Z55	X56	Y56	Z56	X57	Y57	Z57	X58	Y58	Z58	X59	Y59	Z59	X60	Y60	Z60	X61	Y61	Z61	X62	Y62	Z62	X63	Y63	Z63	X64	Y64	Z64	X65	Y65	Z65	X66	Y66	Z66	X67	Y67	Z67	X68	Y68	Z68	X69	Y69	Z69	X70	Y70	Z70	X71	Y71	Z71	X72	Y72	Z72	

101	0.833	6446.805	859.65103	-201.189	6510.141256542569	854.7433020027921	-225.55555195060262	6404.337091803569	456.96633963925535	-264.5409158080118	6459.229634222367	64.51706698070967	-356.807589263754	6413.779088991568	-25.281348523826345	-212.37225688024196	6391.847294470552	835.9621465222299	-164.0831528703083	6273.179363165083	440.56666197553636	-98.1396027397864	6205.519942296567	73.78009292083738	88.1396527665161	6249.70525107621	34.496787709612455	266.2862128610547	6406.302587816305	984.8634853869218	-255.43799854096216	6357.972400558851	1056.5834536233017	-298.2078599617039	6301.557627403061	1125.5471703279636	-343.29710454257093	6241.175497901313	1185.2382269736634	-387.4895263464669	6175.900936134777	1249.1607254732148	-430.9112525638393	6140.29069446607	1325.5538315027427	-388.9680018072029	6117.291617028287	1416.1787678133778	-261.7168261801019	6211.799451759354	1236.5626262439405	-427.28944623260395	6273.966182334457	1256.1393953597922	-466.6920065936672	6399.592614144411	1096.6233567451218	-475.13960213433717	6517.098575114294	1090.8595315511006	-565.712676763141	6527.934948723923	1116.6432826993864	-567.727390488122	6534.5045999342765	1132.838295128213	-581.9920041073144	6540.084120666149	1140.7207331213233	-592.7030063751203	6545.5947711071385	1144.3869909376049	-602.2971138099622	6533.525883479638	1107.0703233062202	-569.7581856025366	6558.0425069656085	1118.2350290421125	-582.8941110377235	6569.782586865625	1124.7528104142064	-597.055571535321	6571.440055788699	1130.017641919661	-606.9629785577523	6569.0066852415475	1135.1933599660847	-615.9075037402266	6535.151485545264	1097.3862854598367	-571.653239815928	6559.945068221451	1103.0382569301073	-585.4892345055254	6572.884155695858	1108.834888175562	-601.1559149204204	6574.945391446417	1114.5554143501731	-613.211394929189	6572.312765065784	1119.9116897847603	-623.0481814605522	6535.739819979876	1090.2523382322886	-572.6136097843303	6558.662099726428	1089.103592079922	-585.7204632947519	6570.031219921041	1092.80248765367	-599.5727100619604	6572.067952780457	1097.6016235136349	-611.3058547904615	6569.6156000316905	1102.2972664474678	-620.6045174558992	6535.191853675645	1081.763866435426	-573.6808740072289	6556.105828057576	1075.4563529314128	-586.2193809622354	6565.251888367436	1076.3117912214293	-597.5624187520314	6566.757848913181	1078.7933151778318	-606.2418808939025	6564.597181456786	1082.3664536101974	-614.5487730540945	6182.398969695608	1221.4657557329388	-404.1520768268518	6141.019670842441	1160.968453486565	-371.3745290711267	6253.83112913355	1090.2368660825377	-496.87620974322266	6407.961143552655	1103.3119245155801	-462.3856574005909	6414.531303740912	1129.9423794391896	-467.5799494840995	6427.615249715089	1135.796152852738	-484.5569031905233	6435.828871139394	1137.1155067177751	-498.48209945005084	6441.9079635629905	1135.8566680410095	-511.8895224975896	6411.044612754882	1124.1278955288137	-475.23543116926527	6416.195622644904	1138.6710246162645	-504.2216898708002	6424.428820970011	1140.1057730531425	-526.3044335115243	6432.430851789859	1137.3475863696783	-537.1204471421271	6440.999113900477	1132.6024808736745	-544.10806897455	6408.6437638710195	1115.7096779663107	-480.0356947901671	6412.367957808416	1125.3436681026383	-510.9039394173029	6421.024322930565	1125.740478410179	-535.542355499577	6430.521242087228	1121.851951209003	-548.851437028079	6439.820033994537	1116.3872801212826	-556.6235351529916	6406.764069787675	1109.4641572434584	-482.6875022586047	6408.317704850376	1112.8903423415336	-512.6538850440501	6415.522402050933	1112.025592555135	-534.6338961931851	6424.502260160926	1107.6318850451335	-547.7397775849968	6433.159857469804	1102.1890518870896	-555.1746072569902	6404.8584017256935	1101.2689382616834	-484.9032602523359	6404.935567341168	1099.6089612017083	-513.7639704997201	6410.1676428182955	1097.0123314686296	-532.0220408666056	6416.457737672081	1092.88643213847	-541.8994784940311	6423.9774106786135	1087.5348572483947	-548.6685133170022
102	0.842	6446.805	859.65103	-201.189	6509.67186233227	854.6959455760178	-225.24701095774464	6404.3944967763	456.8627616415098	-263.9041020459095	6458.980604103398	64.8106076411522	-356.58932554101216	6414.003040861482	-25.222058539905216	-212.5561265629579	6392.302593701927	836.0258274591486	-164.35121130669444	6273.161784852626	440.807217340725	-98.26104173687038	6205.038654013656	74.41434101284959	88.39600985760794	6249.339753738425	34.751116912698336	266.37385686112015	6406.393124079468	984.79532438099	-255.633123170337	6358.08540652156	1056.5279779151597	-298.3710354198131	6301.705079214649	1125.5425924644014	-343.3869687946198	6241.335796636358	1185.2933645929838	-387.4376048261415	6176.077011590386	1249.2775692597154	-430.69036147186233	6140.702269801987	1325.734163129431	-388.7044254264526	6117.685261077021	1416.4972534528672	-261.6040974520829	6211.786796125877	1236.6651412471156	-426.87955607510287	6273.272943421905	1256.5464017049753	-465.1021157674233	6400.345137400378	1099.1999880241233	-471.70938545311947	6517.430774466602	1098.0249169708204	-559.9087951355632	6527.553512960224	1124.3401287245078	-561.4446268732372	6533.9061368841585	1141.0341632585357	-575.1721169986026	6539.429083551459	1149.2915818043684	-585.52446728373	6544.973467577055	1153.2939370098338	-594.8327571384793	6533.387977505512	1114.9372715928337	-563.4894457879274	6557.666745058281	1127.1768480725405	-575.9601283228094	6569.401447606224	1134.3203135082827	-589.6439420070029	6571.08490424504	1139.801214650834	-599.2854008167014	6568.6928285388785	1145.0391351004544	-608.0307141748541	6535.286668743827	1105.2846985681567	-565.4488433832483	6559.995922385188	1112.002120807034	-578.6707875784695	6572.966146991075	1118.4820101667951	-593.826889759475	6575.07649399987	1124.463461857863	-605.5666139421494	6572.497684364637	1129.8879171444776	-615.1879064111985	6536.072955152678	1098.1471877174126	-566.4717653812945	6559.088408350641	1097.9549895341145	-579.0829509342246	6570.522635417407	1102.2482419459493	-592.5020066278404	6572.626902822816	1107.298437530039	-603.9368625852733	6570.234706334333	1112.0578910436236	-613.0358839674687	6535.768343424641	1089.6105850333543	-567.6294707830032	6556.914185198448	1084.1565739810678	-579.7692903717916	6566.171215757054	1085.4819368493163	-590.7860628118269	6567.754896880079	1088.1436755679695	-599.2579255445596	6565.663897315997	1091.7716654586113	-607.3937079426864	6182.736975840454	1221.532076347548	-404.25466537636913	6141.960766600694	1161.4113390322166	-372.604176921191	6255.477460143511	1092.2422964842124	-495.9917415046434	6407.240691773739	1108.54797551205	-459.2672768075581	6414.276930631339	1135.2879449106395	-463.6386981439713	6427.577232998618	1141.3718133747097	-480.05783979938093	6435.943309400751	1142.9133190861294	-493.6653152784099	6442.151023163726	1141.8926442859815	-506.8683841361178	6410.874153998393	1129.7173314329202	-471.4554669724574	6416.721794521095	1144.978732876036	-499.7657639662049	6425.254125073267	1146.8498771736072	-521.4678315570537	6433.284711217642	1144.2219997903458	-532.0912588548138	6441.770427044119	1139.489643763191	-538.9492101491156	6408.4450865981125	1121.4394930864298	-476.4759230369774	6412.8335426212725	1131.8500137794576	-506.80393161914213	6421.81010577646	1132.7391325076935	-531.058312973068	6431.338493012836	1129.0155506793708	-544.1500943026099	6440.545514091485	1123.5685884928196	-551.7876248266206	6406.52971465108	1115.2760129637381	-479.2999627890191	6408.653645243559	1119.472829103675	-508.9299900223668	6416.130006663853	1119.052410060321	-530.608184581658	6425.136276652397	1114.8258946096955	-543.5219396438013	6433.705718081259	1109.403545400475	-550.8385238771763	6404.546709609993	1107.1451515882654	-481.73840504352614	6405.106323723332	1106.2359004973841	-510.4257210260249	6410.541857171238	1104.0154697066787	-528.4949214726807	6416.844405613042	1100.0213869531858	-538.2577690786885	6424.282066878734	1094.6936354779086	-544.9367607403473
103	0.85	6446.805	859.65103	-201.189	6509.222234444341	854.6491740501523	-224.94699134733125	6404.446904802973	456.76557168477444	-263.29477557006095	6458.7078688303645	65.08927378747673	-356.3724855729627	6414.176966937289	-25.168620896629307	-212.73056837900305	6392.738622739919	836.0894853166519	-164.60963068052712	6273.122918775503	441.0487845817624	-98.36977947813273	6204.551181591413	75.03515094091951	88.64551510801536	6248.963058568296	34.98619041092475	266.45756566878305	6406.480279090112	984.7246528891891	-255.83263119278712	6358.190957180323	1056.464907831622	-298.54277112628864	6301.840941037979	1125.5253465641104	-343.48953824028837	6241.478147542645	1185.3270685324806	-387.4021693760073	6176.228647889153	1249.3641413550433	-430.49039871120476	6141.080762056585	1325.8807083697427	-388.46170337567	6118.050102167378	1416.7757590587112	-261.5061883752306	6211.756474002292	1236.7396127838663	-426.4984025676264	6272.579062570096	1256.9112469916233	-463.5833018200117	6401.042478259858	1101.6660512721842	-468.3718078285076	6517.671417624542	1104.9684674756754	-554.2058596810527	6527.081822840448	1131.7929386128303	-555.278535174916	6533.206155458096	1148.9652802228857	-568.4779529619149	6538.66350877664	1157.584297306325	-578.4758733243951	6544.2331022107055	1161.9124869469158	-587.5000849682787	6533.156614411608	1122.5617060057966	-557.3315843163307	6557.1864081224785	1135.849214326062	-569.143513718138	6568.903242907543	1143.600594653794	-582.3530001808193	6570.604132665649	1149.2882949638597	-591.7311094332216	6568.245738754781	1154.5819430414797	-600.2797226550922	6535.325360002891	1112.944421224734	-559.3493821065572	6559.937800359683	1120.7030866563289	-571.9603913962775	6572.925162262104	1127.8474375199928	-586.6087309408393	6575.074122024078	1134.0789148659912	-598.0354473492438	6572.540712695906	1139.5646037884098	-607.4438058037103	6536.307776377107	1105.8067269790704	-560.4304914999876	6559.403745275182	1106.5522914590206	-572.5450119914377	6570.890517658563	1111.4241619635209	-585.5325012201115	6573.052002184705	1116.7152457278323	-596.6712786251355	6570.71195797338	1121.5321408121551	-605.57285707174	6536.244439064467	1097.2267364195977	-561.6734208683813	6557.609381375683	1092.6118850023702	-573.4104237082393	6566.96681780642	1094.3956568360559	-584.1009420011218	6568.620449383396	1097.2307171599855	-592.366193586439	6566.591886740314	1100.9082193291783	-600.3324545446809	6183.048532992973	1221.5726886590805	-404.3668972987857	6142.862051470859	1161.8201468442187	-373.80088545107037	6257.069097133944	1094.145007763244	-495.12295177144347	6406.500491710774	1113.590146220338	-456.19975041481297	6413.984247480729	1140.4264640992715	-459.7577272071881	6427.493862073397	1146.737047451964	-475.6305688336172	6436.009266393885	1148.4983655666367	-488.92716004705164	6442.344516061345	1147.7139167593677	-501.930564165949	6410.669176589616	1135.0973265549655	-467.7319507782001	6417.2012868574175	1151.058637505616	-495.3724733456239	6426.028992924578	1153.360014588409	-516.700657687228	6434.087876923077	1150.863659350424	-527.137568367728	6442.492235075285	1146.148459291175	-533.8721186403968	6408.217374858181	1126.9608604567536	-472.9692914845454	6413.2611966558	1138.1305363777215	-502.76130901006155	6422.5546274792005	1139.5054372405177	-526.6386145133018	6432.114541163788	1135.9483594757141	-539.5202009545524	6441.231271357756	1130.523974097847	-547.0299180905838	6406.270471374811	1120.8805203624556	-475.9630369327623	6408.960211059875	1125.8331432176037	-505.2582268434741	6416.706134331601	1125.851597996375	-526.640200414734	6425.739297561138	1121.7939009984216	-539.3684333094951	6434.222176055357	1116.396671043482	-546.573004544262	6404.215564443221	1112.8163729631833	-478.62132219062454	6405.256729455503	1112.6454604676478	-507.1347802943287	6410.895305928138	1110.7972851193645	-525.0188522734461	6417.211272707541	1106.936411408818	-534.6715693412533	6424.568686481953	1101.636708128813	-541.265832957616
104	0.858	6446.805	859.65103	-201.189	6508.793469485655	854.603183365714	-224.65602502246585	6404.494247010539	456.6749406856557	-262.71333908077713	6458.4136745481555	65.35250754440001	-356.1559205686473	6414.302389485339	-25.120949944553132	-212.89322939942775	6393.154283926578	836.1528484469814	-164.8580348385769	6273.062838147254	441.2907625865139	-98.46519632589077	6204.058550632577	75.64136701638286	88.88876220113572	6248.576432429171	35.202311783720894	266.5383171265893	6406.563990024979	984.6517894257994	-256.0358111429413	6358.289119024402	1056.394754229596	-298.72230975013457	6301.965378815118	1125.496038971364	-343.60413891533886	6241.602962097398	1185.3401685401243	-387.3828683362603	6176.356503502544	1249.4214958593684	-430.3114103053876	6141.426355132022	1325.9943966294632	-388.2399681382792	6118.386050714206	1417.0147975927166	-261.4228617150248	6211.7096152071545	1236.7871945530956	-426.1463124258193	6271.887855201253	1257.2354261594066	-462.1381374273693	6401.687179903519	1104.018603623064	-465.1353825568912	6517.827437582848	1111.680056361171	-548.6218636238133	6526.528952185857	1138.991295783404	-549.2477946734227	6532.4149070202275	1156.6209761383645	-561.9297143774792	6537.79825770792	1165.587905862104	-571.5785813518868	6543.384865223135	1170.2313045934754	-580.3214968224208	6532.840373922054	1129.9326715425873	-551.3036400310516	6556.61154315931	1144.2396715807795	-562.4654234149085	6568.29870742852	1152.580445838785	-575.2055871604182	6570.008777451131	1158.4655885742222	-584.3238683863424	6567.6766172010475	1163.8086751701976	-592.6789729547958	6535.275500855628	1120.3542178697217	-553.3740862704441	6559.779729712855	1129.1283028368816	-565.379444931892	6572.770890065256	1136.917466458172	-579.524694668466	6574.948285221418	1143.38795026164	-590.6422737217849	6572.452019352716	1148.9281223417331	-599.8410063799041	6536.451739165983	1113.2195564459535	-554.5090985346739	6559.616124158562	1114.8824955641273	-566.1279667238251	6571.143363326383	1120.3164727972808	-578.6871485288901	6573.352007879631	1125.8381422147831	-589.5331485306837	6571.056238588966	1130.7062863816082	-598.2401897993878	6536.626975280638	1104.600807830766	-555.8320744107683	6558.198388671735	1100.8092191812611	-567.1639960119375	6567.645905693496	1103.0392260656336	-577.5295958333459	6569.361836044272	1106.0406001334682	-585.5900278470717	6567.38855040542	1109.7624207407175	-593.3889867030722	6183.333690639525	1221.588435771659	-404.48819609352716	6143.721437966246	1162.194270507949	-374.9623170998411	6258.602787578455	1095.9428860260768	-494.27408278083897	6405.745340447765	1118.4319994561547	-453.19291735997734	6413.6577071984275	1145.3520076080035	-455.9490036987581	6427.369453984286	1151.88556092021	-471.28843065515275	6436.0308293522285	1153.8639186102	-484.28178972595464	6442.492222250168	1153.3132431794804	-497.09077805752935	6410.433541019833	1140.2613894272392	-464.0766058333005	6417.636357361468	1156.9033502358266	-491.0556141559306	6426.7549738996995	1159.6279897205754	-512.0177998442527	6434.841915838967	1157.2639826926675	-522.2747037013027	6443.16642834527	1152.5701026163217	-528.892325717478	6407.964196568142	1132.2668232819167	-469.5270516507755	6413.6527661525215	1144.1771527452652	-498.7890898937626	6423.258928450506	1146.0303698039402	-522.2974003843797	6432.850432348966	1142.6408599801925	-534.9763948800028	6441.878697807441	1137.2436402992632	-542.3652590405143	6405.989736736568	1126.2704172850363	-472.6875930874865	6409.239091938933	1131.9627495044288	-501.6507236563319	6417.251741478221	1132.4137439324018	-522.7429759887152	6426.312268133801	1128.525983561365	-535.2927317136508	6434.710494396259	1123.1582311598547	-542.3916977071967	6403.868254224102	1118.2750102559958	-475.56235441588996	6405.388421275395	1118.828679362792	-503.9023333015728	6411.228998046592	1117.3480281619156	-521.6056216871158	6417.559320097571	1113.6213439891071	-531.1529309154254	6424.838520795411	1108.3536445484172	-537.6679033343194
